g Mesh1 Model

v -5 -1 -5
vt 196.85 -39.3701
vn 1 0 -0
v -5 0 10
vt -393.701 0
v -5 -1 10
vt -393.701 -39.3701
f 1/1/1 2/2/1 3/3/1

v -5 0 -5
vt 196.85 0
f 2/2/1 1/1/1 4/4/1

vt -196.85 -39.3701
vn 0 0 1
v 3.19381e-15 0 -5
vt 1.2574e-13 0
vt -196.85 0
f 1/5/2 5/6/2 4/7/2

v 3.19381e-15 -1 -5
vt 1.2574e-13 -39.3701
f 5/6/2 1/5/2 6/8/2

vt 196.85 196.85
vn 2.51932e-17 -1 -4.26548e-17
v 8 -1 -8
vt -314.961 314.961
vt -1.24749e-13 196.85
f 1/9/3 7/10/3 6/11/3

v -8 -1 -8
vt 314.961 314.961
f 1/9/3 8/12/3 7/10/3

v -8 -1 10
vt 314.961 -393.701
f 8/12/3 1/9/3 9/13/3

vt 196.85 -393.701
f 3/14/3 9/13/3 1/9/3

vt -314.961 -39.3701
f 2/7/2 9/15/2 3/5/2

v -8 0 10
vt -314.961 0
f 9/15/2 2/7/2 10/16/2

vt -196.85 -393.701
vn 0 1 -0
v -8 0 -8
vt -314.961 -393.701
f 2/17/4 11/10/4 10/18/4

vt -196.85 196.85
f 11/10/4 2/17/4 4/19/4

v 8 0 -8
f 11/10/4 4/19/4 12/12/4

vt 1.2574e-13 196.85
f 12/12/4 4/19/4 5/20/4

v 1.54508 0 -4.75528
vt 60.8301 187.216
f 12/12/4 5/20/4 13/21/4

vt -30.7942 -39.3701
vn -0.156434 0 0.987688
vt 30.7942 0
vt -30.7942 0
f 6/22/5 13/23/5 5/24/5

v 1.54508 -1 -4.75528
vt 30.7942 -39.3701
f 13/23/5 6/22/5 14/25/5

vt -60.8301 187.216
f 6/11/3 7/10/3 14/26/3

v 2.3795 -1 -4.33013
vt -93.6811 170.477
f 14/26/3 7/10/3 15/27/3

v 2.55022 -1 -4.24314
vt -100.402 167.053
f 15/27/3 7/10/3 16/28/3

v 2.93893 -1 -4.04508
vt -115.706 159.255
f 16/28/3 7/10/3 17/29/3

v 4.04508 -1 -2.93893
vt -159.255 115.706
f 17/29/3 7/10/3 18/30/3

v 4.75528 -1 -1.54508
vt -187.216 60.8301
f 18/30/3 7/10/3 19/31/3

v 5 -1 2.88765e-15
vt -196.85 -1.15366e-13
f 19/31/3 7/10/3 20/32/3

v 5 -1 10
f 20/32/3 7/10/3 21/17/3

v 8 -1 10
f 21/17/3 7/10/3 22/18/3

vt 314.961 -39.3701
v 8 0 10
f 7/33/1 23/2/1 22/3/1

vt 314.961 0
f 23/2/1 7/33/1 12/34/1

vn 0 0 -1
f 7/15/6 11/34/6 12/16/6

f 11/34/6 7/15/6 8/33/6

vt 393.701 -39.3701
vn -1 0 -0
f 9/35/7 11/16/7 8/15/7

vt 393.701 0
f 11/16/7 9/35/7 10/36/7

v 5 0 2.88765e-15
vt 196.85 -1.13687e-13
f 12/12/4 24/37/4 23/13/4

v 4.75528 0 -1.54508
vt 187.216 60.8301
f 12/12/4 25/38/4 24/37/4

v 4.04508 0 -2.93893
vt 159.255 115.706
f 12/12/4 26/39/4 25/38/4

v 2.93893 0 -4.04508
vt 115.706 159.255
f 12/12/4 27/40/4 26/39/4

v 2.55022 0 -4.24314
vt 100.402 167.053
f 12/12/4 28/41/4 27/40/4

v 2.3795 0 -4.33013
vt 93.6811 170.477
f 12/12/4 29/42/4 28/41/4

f 12/12/4 13/21/4 29/42/4

vt -30.7942 -1.36106e-15
vn -0.45399 -7.00039e-18 0.891007
vt 13.6189 -1.36106e-15
vt 6.07533 -1.36106e-15
f 13/43/8 28/44/8 29/45/8

vt 30.7942 -1.36106e-15
f 13/43/8 27/46/8 28/44/8

vt 13.6189 -39.3701
f 13/43/8 16/47/8 27/46/8

f 14/22/8 16/47/8 13/43/8

vt 6.07533 -39.3701
f 16/47/8 14/22/8 15/48/8

f 27/46/8 16/47/8 17/25/8

vn -0.707107 0 0.707107
f 18/25/9 27/24/9 17/22/9

f 27/24/9 18/25/9 26/23/9

vn -0.891007 0 0.45399
f 19/25/10 26/24/10 18/22/10

f 26/24/10 19/25/10 25/23/10

vn -0.987688 2.52955e-18 0.156434
vt -30.7942 4.91812e-16
f 20/25/11 25/49/11 19/22/11

vt 30.7942 4.91812e-16
f 25/49/11 20/25/11 24/50/11

vt 1.13687e-13 0
vt 1.13687e-13 -39.3701
f 21/35/7 24/51/7 20/52/7

v 5 0 10
f 24/51/7 21/35/7 30/36/7

f 21/1/2 23/34/2 30/4/2

f 23/34/2 21/1/2 22/33/2

f 23/13/4 24/37/4 30/14/4

