# Alias OBJ Model File
# Exported from SketchUp, (c) 2000-2012 Trimble Navigation Limited
# File units = meters

usemtl FrontColor
v 0 0 -0
vt 0 0
vn 0 1 -0
v 2 0 -2
vt 78.7402 78.7402
v 0 0 -6
vt 0 236.22
f 1/1/1 2/2/1 3/3/1

v 6 0 -0
vt 236.22 0
f 2/2/1 1/1/1 4/4/1

v 0 -0.5 -0
vt 0 -19.685
vn 0 0 1
f 5/5/2 4/4/2 1/1/2

v 6 -0.5 -0
vt 236.22 -19.685
f 4/4/2 5/5/2 6/6/2

vn 0 -1 -0
v 2 -0.5 -2
vt -78.7402 78.7402
vt -236.22 0
f 5/1/3 7/7/3 6/8/3

v 2 -0.5 -4
vt -78.7402 157.48
f 7/7/3 5/1/3 8/9/3

v 0 -0.5 -6
f 9/3/3 8/9/3 5/1/3

v 4 -0.5 -6
vt -157.48 236.22
f 8/9/3 9/3/3 10/10/3

vn 0 0 -1
vt -157.48 -19.685
f 3/1/4 10/11/4 9/5/4

v 4 0 -6
vt -157.48 0
f 10/11/4 3/1/4 11/12/4

v 2 0 -4
vt 78.7402 157.48
vt 157.48 236.22
f 3/3/1 12/13/1 11/14/1

f 12/13/1 3/3/1 2/2/1

vt 78.7402 0
vn 1 0 -0
vt 157.48 -19.685
vt 157.48 0
f 2/15/5 8/16/5 12/17/5

vt 78.7402 -19.685
f 8/16/5 2/15/5 7/18/5

vt -78.7402 0
v 6 -0.5 -2
vt -236.22 -19.685
vt -78.7402 -19.685
f 2/19/4 13/20/4 7/21/4

v 6 0 -2
f 13/20/4 2/19/4 14/8/4

vt 236.22 78.7402
f 2/2/1 4/4/1 14/22/1

f 4/1/5 13/18/5 14/15/5

f 13/18/5 4/1/5 6/5/5

vt -236.22 78.7402
f 6/8/3 7/7/3 13/23/3

v 6 0 -4
f 8/18/2 15/4/2 12/15/2

v 6 -0.5 -4
f 15/4/2 8/18/2 16/6/2

vt -236.22 157.48
f 8/9/3 10/10/3 16/24/3

v 6 -0.5 -10
vt -236.22 393.701
f 16/24/3 10/10/3 17/25/3

v 4 -0.5 -8
vt -157.48 314.961
f 18/26/3 17/25/3 10/10/3

v 2 -0.5 -10
vt -78.7402 393.701
f 18/26/3 19/27/3 17/25/3

v 0 -0.5 -8
vt 0 314.961
f 20/28/3 19/27/3 18/26/3

v 2 -0.5 -12
vt -78.7402 472.441
f 19/27/3 20/28/3 21/29/3

v 0 -0.5 -14
vt 0 551.181
f 22/30/3 21/29/3 20/28/3

v 4.17 -0.5 -14
vt -164.173 551.181
f 21/29/3 22/30/3 23/31/3

v 0 0 -14
vt -164.173 -19.685
f 24/1/4 23/32/4 22/5/4

v 4.17 0 -14
vt -164.173 0
f 23/32/4 24/1/4 25/33/4

v 2 0 -12
vt 78.7402 472.441
vt 164.173 551.181
f 24/30/1 26/34/1 25/35/1

v 2 0 -10
vt 78.7402 393.701
f 26/34/1 24/30/1 27/36/1

v 0 0 -8
f 28/28/1 27/36/1 24/30/1

v 4 0 -8
vt 157.48 314.961
f 27/36/1 28/28/1 29/37/1

f 20/5/2 29/17/2 28/1/2

f 29/17/2 20/5/2 18/16/2

vn -1 0 -0
vt -314.961 0
vt -314.961 -19.685
f 10/20/6 29/38/6 18/39/6

f 29/38/6 10/20/6 11/8/6

vt 236.22 157.48
f 11/14/1 15/40/1 29/37/1

f 11/14/1 12/13/1 15/40/1

v 6 0 -10
vt 236.22 393.701
f 30/41/1 29/37/1 15/40/1

f 27/36/1 29/37/1 30/41/1

f 17/20/4 27/19/4 30/8/4

f 27/19/4 17/20/4 19/21/4

vt 472.441 -19.685
vt 393.701 0
vt 393.701 -19.685
f 21/42/5 27/43/5 19/44/5

vt 472.441 0
f 27/43/5 21/42/5 26/45/5

v 6 0 -12
f 21/18/2 31/4/2 26/15/2

v 6 -0.5 -12
f 31/4/2 21/18/2 32/6/2

vt -236.22 472.441
f 21/29/3 23/31/3 32/46/3

v 6 -0.5 -18
vt -236.22 708.661
f 32/46/3 23/31/3 33/47/3

v 4.17 -0.5 -16
vt -164.173 629.921
f 34/48/3 33/47/3 23/31/3

v 2 -0.5 -18
vt -78.7402 708.661
f 34/48/3 35/49/3 33/47/3

v 0 -0.5 -16
vt 0 629.921
f 36/50/3 35/49/3 34/48/3

v 2 -0.5 -20
vt -78.7402 787.402
f 35/49/3 36/50/3 37/51/3

v 0 -0.5 -22
vt 0 866.142
f 38/52/3 37/51/3 36/50/3

v 4 -0.5 -22
vt -157.48 866.142
f 37/51/3 38/52/3 39/53/3

v 0 0 -22
f 40/1/4 39/11/4 38/5/4

v 4 0 -22
f 39/11/4 40/1/4 41/12/4

v 2 0 -20
vt 78.7402 787.402
vt 157.48 866.142
f 40/52/1 42/54/1 41/55/1

v 2 0 -18
vt 78.7402 708.661
f 42/54/1 40/52/1 43/56/1

v 0 0 -16
f 44/50/1 43/56/1 40/52/1

v 4.17 0 -16
vt 164.173 629.921
f 43/56/1 44/50/1 45/57/1

vt 164.173 0
f 36/5/2 45/58/2 44/1/2

vt 164.173 -19.685
f 45/58/2 36/5/2 34/59/2

vt -551.181 -19.685
vt -629.921 0
vt -629.921 -19.685
f 23/60/6 45/61/6 34/62/6

vt -551.181 0
f 45/61/6 23/60/6 25/63/6

vt 236.22 472.441
f 25/35/1 31/64/1 45/57/1

f 25/35/1 26/34/1 31/64/1

v 6 0 -18
vt 236.22 708.661
f 46/65/1 45/57/1 31/64/1

f 43/56/1 45/57/1 46/65/1

f 33/20/4 43/19/4 46/8/4

f 43/19/4 33/20/4 35/21/4

vt 787.402 -19.685
vt 708.661 0
vt 708.661 -19.685
f 37/66/5 43/67/5 35/68/5

vt 787.402 0
f 43/67/5 37/66/5 42/69/5

v 6 0 -20
f 37/18/2 47/4/2 42/15/2

v 6 -0.5 -20
f 47/4/2 37/18/2 48/6/2

vt -236.22 787.402
f 37/51/3 39/53/3 48/70/3

v 6 -0.5 -26
vt -236.22 1023.62
f 48/70/3 39/53/3 49/71/3

v 4 -0.5 -24
vt -157.48 944.882
f 50/72/3 49/71/3 39/53/3

v 0 -0.5 -24
vt 0 944.882
f 51/73/3 49/71/3 50/72/3

v 0 -0.5 -26
vt 0 1023.62
f 49/71/3 51/73/3 52/74/3

vt -944.882 -19.685
v 0 0 -26
vt -1023.62 0
vt -1023.62 -19.685
f 51/75/6 53/76/6 52/77/6

v 0 0 -24
vt -944.882 0
f 53/76/6 51/75/6 54/78/6

v 4 0 -24
f 51/5/2 55/17/2 54/1/2

f 55/17/2 51/5/2 50/16/2

vt -866.142 -19.685
f 39/79/6 55/78/6 50/75/6

vt -866.142 0
f 55/78/6 39/79/6 41/80/6

vt 236.22 787.402
vt 157.48 944.882
f 41/55/1 47/81/1 55/82/1

f 41/55/1 42/54/1 47/81/1

v 6 0 -26
vt 236.22 1023.62
f 56/83/1 55/82/1 47/81/1

f 53/74/1 55/82/1 56/83/1

f 55/82/1 53/74/1 54/73/1

f 49/20/4 53/1/4 56/8/4

f 53/1/4 49/20/4 52/5/4

vt 1023.62 -19.685
vt 1023.62 0
f 47/69/5 49/84/5 56/85/5

f 49/84/5 47/69/5 48/66/5

f 31/45/5 33/68/5 46/67/5

f 33/68/5 31/45/5 32/42/5

f 40/80/6 36/62/6 44/61/6

f 36/62/6 40/80/6 38/79/6

f 15/17/5 17/44/5 30/43/5

f 17/44/5 15/17/5 16/16/5

f 24/63/6 20/39/6 28/38/6

f 20/39/6 24/63/6 22/60/6

f 5/5/6 3/8/6 9/20/6

f 3/8/6 5/5/6 1/1/6

